<?xml version="1.0" encoding="UTF-8"?>
<!DOCTYPE svg PUBLIC "-//W3C//DTD SVG 1.1//EN" "http://www.w3.org/Graphics/SVG/1.1/DTD/svg11.dtd">
<svg version="1.1" xmlns="http://www.w3.org/2000/svg" xmlns:xlink="http://www.w3.org/1999/xlink" x="0" y="0" width="200" height="100" viewBox="0, 0, 200, 100">
  <g id="Layer_1">
    <g id="Lift">
      <path d="M27.787,0.824 C25.454,0.824 23.658,2.555 23.658,4.698 L23.658,54.808 C23.658,56.868 25.543,58.517 27.787,58.517 L78.322,58.517 C80.567,58.517 82.451,56.868 82.451,54.726 L82.451,50.935 C82.451,48.792 80.567,47.143 78.322,47.143 L40.174,47.143 L40.174,4.698 C40.174,2.555 38.379,0.824 36.045,0.824 z" fill="#000000"/>
      <path d="M101.391,58.517 C102.917,58.517 104.084,57.445 104.084,56.045 L104.084,17.885 C104.084,16.483 102.917,15.412 101.391,15.412 L91.607,15.412 C90.081,15.412 88.914,16.483 88.914,17.885 L88.914,56.045 C88.914,57.445 90.081,58.517 91.607,58.517 z M88.735,6.016 C88.735,8.901 90.62,10.632 93.761,10.632 L99.237,10.632 C102.378,10.632 104.263,8.901 104.263,6.016 L104.263,4.615 C104.263,1.73 102.378,0 99.237,0 L93.761,0 C90.62,0 88.735,1.73 88.735,4.615 z" fill="#000000"/>
      <path d="M115.034,56.045 C115.034,57.445 116.202,58.517 117.728,58.517 L127.512,58.517 C129.037,58.517 130.204,57.445 130.204,56.045 L130.204,30.989 L146.092,30.989 C147.617,30.989 148.785,29.918 148.785,28.517 L148.785,23.736 C148.785,22.335 147.617,21.264 146.092,21.264 L130.204,21.264 L130.204,20.605 C130.204,11.703 132.448,9.56 144.206,9.56 C146.54,9.56 148.246,10.22 150.221,10.22 L151.836,10.22 C153.362,10.22 154.53,9.148 154.53,7.747 L154.53,3.297 C154.53,2.06 153.362,1.071 151.836,0.824 C149.143,0.33 144.206,0 140.168,0 C121.318,0 115.034,5.769 115.034,20.605 z" fill="#000000"/>
      <path d="M188.639,58.517 C190.165,58.27 191.332,57.281 191.332,56.045 L191.332,51.759 C191.332,50.358 190.165,49.286 188.639,49.286 L187.023,49.286 C185.048,49.286 183.342,49.781 181.009,49.781 C176.431,49.781 173.289,46.814 173.289,41.209 L173.289,26.456 L185.497,26.456 C187.023,26.456 188.19,25.385 188.19,23.984 L188.19,19.204 C188.19,17.802 187.023,16.731 185.497,16.731 L173.289,16.731 L173.289,3.297 C173.289,1.895 172.123,0.824 170.597,0.824 L160.813,0.824 C159.287,0.824 158.119,1.895 158.119,3.297 L158.119,41.209 C158.119,53.572 164.402,59.341 176.969,59.341 C181.009,59.341 185.945,59.012 188.639,58.517 z" fill="#000000"/>
    </g>
    <path d="M-0,100 C-0,100 75.941,65.477 161.047,65.215 C180.744,65.155 200,70.869 200,79.077 C200,85.598 190.105,89.539 176.104,89.539 C163.01,89.539 136.918,86.768 102.782,87.969 C50.736,89.8 -0,100 -0,100 z" fill="#000000" id="Wing"/>
  </g>
</svg>
