<?xml version="1.0" encoding="UTF-8"?>
<!DOCTYPE svg PUBLIC "-//W3C//DTD SVG 1.1//EN" "http://www.w3.org/Graphics/SVG/1.1/DTD/svg11.dtd">
<svg version="1.1" xmlns="http://www.w3.org/2000/svg" xmlns:xlink="http://www.w3.org/1999/xlink" x="0" y="0" width="423.626" height="423.626" viewBox="0, 0, 423.626, 423.626">
  <defs>
    <linearGradient id="Gradient_1" gradientUnits="userSpaceOnUse" x1="1093.076" y1="-133.669" x2="353.566" y2="-142.524" gradientTransform="matrix(0, 1, -1, 0, 64.862, -205.387)">
      <stop offset="0" stop-color="#000000"/>
      <stop offset="1" stop-color="#000000" stop-opacity="0"/>
    </linearGradient>
    <linearGradient id="Gradient_2" gradientUnits="userSpaceOnUse" x1="-219.951" y1="-215.085" x2="629.013" y2="-146.951" gradientTransform="matrix(0, 1, -1, 0, 64.862, -205.387)">
      <stop offset="0" stop-color="#FFFFFF"/>
      <stop offset="1" stop-color="#FFFFFF" stop-opacity="0"/>
    </linearGradient>
  </defs>
  <g id="Layer_1">
    <g id="Sign">
      <path d="M418.084,8.832 C421.695,13.297 423.481,18.564 423.626,24.27 L423.626,399.355 C423.626,412.76 412.76,423.626 399.355,423.626 L24.27,423.626 C10.866,423.626 -0,412.76 0,399.355 L0,24.27 C0,10.866 10.866,0 24.27,0 L399.356,-0 C404.899,0.078 410.55,1.868 414.794,5.542 C415.966,6.557 416.987,7.735 418.084,8.832 z" fill="#FFCC00"/>
      <path d="M418.084,8.832 C421.695,13.297 423.481,18.564 423.626,24.27 L423.626,399.355 C423.626,412.76 412.76,423.626 399.355,423.626 L24.27,423.626 C10.866,423.626 -0,412.76 0,399.355 L0,24.27 C0,10.866 10.866,0 24.27,0 L399.356,-0 C404.899,0.078 410.55,1.868 414.794,5.542 C415.966,6.557 416.987,7.735 418.084,8.832 z" fill="url(#Gradient_1)" opacity="0.716"/>
      <path d="M418.084,8.832 C421.695,13.297 423.481,18.564 423.626,24.27 L423.626,399.355 C423.626,412.76 412.76,423.626 399.355,423.626 L24.27,423.626 C10.866,423.626 -0,412.76 0,399.355 L0,24.27 C0,10.866 10.866,0 24.27,0 L399.356,-0 C404.899,0.078 410.55,1.868 414.794,5.542 C415.966,6.557 416.987,7.735 418.084,8.832 z" fill="url(#Gradient_2)" opacity="0.72"/>
      <path d="M408.702,14.908 C412.921,19.127 415.522,24.978 415.522,31.444 L415.521,392.198 C415.522,405.129 405.119,415.532 392.187,415.532 L31.434,415.532 C18.502,415.532 8.1,405.129 8.1,392.198 L8.1,31.444 C8.1,18.512 18.502,8.11 31.434,8.11 L392.187,8.11 C398.653,8.11 404.483,10.688 408.702,14.908 z M396.022,27.588 C392.074,23.64 386.624,21.204 380.575,21.204 L43.046,21.204 C30.947,21.204 21.216,30.936 21.216,43.035 L21.216,380.563 C21.216,392.662 30.969,402.416 43.068,402.416 L380.575,402.394 C392.674,402.394 402.406,392.662 402.406,380.563 L402.427,43.057 C402.427,37.007 399.969,31.535 396.022,27.588 z" fill="#151515"/>
    </g>
    <g id="Lift">
      <path d="M77.12,125.233 C72.868,125.233 69.597,128.668 69.597,132.92 L69.597,232.361 C69.597,236.449 73.031,239.721 77.12,239.721 L169.201,239.721 C173.29,239.721 176.724,236.449 176.724,232.197 L176.724,224.674 C176.724,220.421 173.29,217.15 169.201,217.15 L99.691,217.15 L99.691,132.92 C99.691,128.668 96.419,125.233 92.167,125.233 z" fill="#151515"/>
      <path d="M211.234,239.721 C214.014,239.721 216.141,237.594 216.141,234.814 L216.141,159.089 C216.141,156.308 214.014,154.182 211.234,154.182 L193.407,154.182 C190.626,154.182 188.5,156.308 188.5,159.089 L188.5,234.814 C188.5,237.594 190.626,239.721 193.407,239.721 z M188.173,135.537 C188.173,141.261 191.608,144.696 197.332,144.696 L207.309,144.696 C213.033,144.696 216.468,141.261 216.468,135.537 L216.468,132.757 C216.468,127.032 213.033,123.598 207.309,123.598 L197.332,123.598 C191.608,123.598 188.173,127.032 188.173,132.757 z" fill="#151515"/>
      <path d="M236.094,234.814 C236.094,237.594 238.22,239.721 241.001,239.721 L258.828,239.721 C261.608,239.721 263.735,237.594 263.735,234.814 L263.735,185.094 L292.684,185.094 C295.464,185.094 297.59,182.968 297.59,180.187 L297.59,170.701 C297.59,167.921 295.464,165.794 292.684,165.794 L263.735,165.794 L263.735,164.486 C263.735,146.822 267.823,142.57 289.249,142.57 C293.501,142.57 296.609,143.878 300.207,143.878 L303.151,143.878 C305.931,143.878 308.058,141.752 308.058,138.972 L308.058,130.14 C308.058,127.686 305.931,125.724 303.151,125.233 C298.244,124.252 289.249,123.598 281.889,123.598 C247.543,123.598 236.094,135.046 236.094,164.486 z" fill="#151515"/>
      <path d="M370.208,239.721 C372.988,239.23 375.115,237.267 375.115,234.814 L375.115,226.309 C375.115,223.529 372.988,221.403 370.208,221.403 L367.264,221.403 C363.666,221.403 360.558,222.384 356.306,222.384 C347.965,222.384 342.24,216.496 342.24,205.374 L342.24,176.098 L364.484,176.098 C367.264,176.098 369.39,173.972 369.39,171.192 L369.39,161.706 C369.39,158.925 367.264,156.799 364.484,156.799 L342.24,156.799 L342.24,130.14 C342.24,127.359 340.114,125.233 337.334,125.233 L319.506,125.233 C316.726,125.233 314.6,127.359 314.6,130.14 L314.6,205.374 C314.6,229.907 326.048,241.356 348.946,241.356 C356.306,241.356 365.301,240.702 370.208,239.721 z" fill="#151515"/>
    </g>
    <path d="M26.489,322.04 C26.489,322.04 164.861,253.532 319.934,253.012 C355.823,252.893 390.909,264.232 390.909,280.52 C390.909,293.461 372.88,301.28 347.369,301.28 C323.512,301.28 275.969,295.783 213.768,298.166 C118.936,301.799 26.489,322.04 26.489,322.04 z" fill="#151515" id="Wing"/>
  </g>
</svg>
