<?xml version="1.0" encoding="UTF-8"?>
<!DOCTYPE svg PUBLIC "-//W3C//DTD SVG 1.1//EN" "http://www.w3.org/Graphics/SVG/1.1/DTD/svg11.dtd">
<svg version="1.1" xmlns="http://www.w3.org/2000/svg" xmlns:xlink="http://www.w3.org/1999/xlink" x="0" y="0" width="100" height="100" viewBox="0, 0, 100, 100">
  <g id="layer1">
    <path d="M56.988,1.849 C60.995,5.784 65.003,9.718 69.011,13.652 C68.31,14.648 68.594,14.169 68.125,15.068 C64.413,11.424 60.7,7.779 56.988,4.135 L56.988,20.539 L55.347,20.088 L55.347,4.164 L6.375,20.949 L7.683,22.298 C7.663,22.493 7.791,22.655 7.905,22.796 L38.442,53.826 C38.651,53.999 38.52,53.912 38.864,54.054 C39.028,54.133 39.218,54.104 39.385,54.055 C46.641,51.513 54.05,48.918 63.952,45.45 C65.775,44.811 67.647,44.156 70.094,43.299 C73.165,42.223 73.165,42.223 76.236,41.147 C81.253,39.39 84.91,38.109 88.519,36.845 C88.674,36.772 88.629,36.811 88.681,36.764 L89.817,36.365 C83.231,29.899 86.537,33.144 79.901,26.629 C80.956,25.999 80.501,26.318 81.29,25.708 C84.62,28.977 87.949,32.245 91.279,35.514 L91.523,35.754 L91.523,35.766 L91.603,35.738 C91.604,44.535 91.604,40.814 91.604,46.903 C91.604,57.6 91.603,68.297 91.604,78.994 L91.603,79.816 L90.921,79.816 L39.236,97.907 L38.143,98.289 L38.143,98.27 L38.124,98.289 L4.07,63.961 L4.069,63.961 L4.069,63.96 L4.059,63.949 L4.069,63.938 L4.069,20.875 L4.031,20.836 L4.069,20.799 L4.069,20.005 L4.624,19.815 L55.902,2.24 L56.96,1.877 L56.988,1.849 z M5.71,22.567 L5.71,61.667 C11.234,59.78 16.757,57.894 22.281,56.006 L22.883,57.534 C17.175,59.484 11.466,61.434 5.758,63.384 L38.143,96.031 L38.143,87.589 L38.154,87.484 C38.157,82.897 38.159,78.282 38.163,71.808 C38.165,69.67 38.165,69.67 38.166,67.533 C38.169,61.829 38.171,59.298 38.173,56.132 C38.153,55.937 38.12,55.722 37.953,55.593 C37.915,55.497 37.946,55.561 37.832,55.419 L8.97,25.928 C7.073,23.972 8.16,25.093 5.71,22.567 L5.71,22.567 z M22.782,42.387 L36.532,56.436 C36.53,60.134 36.527,63.833 36.525,67.532 C36.525,68.38 36.524,69.228 36.524,70.076 C30.025,66.727 25.575,60.949 23.36,54.057 C22.544,51.328 22.223,48.473 22.38,45.628 C22.44,44.541 22.648,43.467 22.782,42.387 z M8.796,28.096 L18.736,38.252 C16.794,39.472 14.531,39.822 12.328,39.18 C11.469,38.892 10.751,38.424 10.065,37.847 C7.052,35.311 6.661,31.336 8.796,28.096 z M89.892,38.081 C84.758,39.884 79.623,41.687 74.489,43.49 L74.491,43.506 C63.141,47.456 51.791,51.406 40.441,55.355 C40.262,55.438 40.331,55.388 40.221,55.487 C39.923,55.613 39.759,55.897 39.748,56.216 C39.762,61.319 39.775,66.422 39.788,71.525 L39.786,71.525 L39.786,95.973 L89.96,78.411 L89.96,78.169 L72.458,60.927 C73.08,59.916 72.809,60.41 73.286,59.453 L89.892,75.812 C89.892,64.214 89.892,68.744 89.892,62.223 C89.892,54.611 89.892,47 89.892,39.388 C89.906,39.168 89.92,39.252 89.892,39.132 L89.892,38.081 L89.892,38.081 z M70.74,63.465 L71.117,63.749 C72.978,65.243 73.753,67.419 73.956,69.732 L73.955,69.732 C74.252,75.781 66.552,79.877 61.701,76.25 C60.231,75.398 59.501,74.138 58.821,72.648 C63.532,70.723 67.701,67.555 70.74,63.465 z M74.674,45.534 C74.71,45.979 74.71,46.426 74.718,46.872 L74.718,46.892 C74.999,59.641 64.577,71.484 51.892,72.84 L51.858,72.844 C48.391,73.363 44.864,73.056 41.499,72.103 L41.43,72.081 L41.429,71.847 C41.416,66.818 41.403,61.79 41.39,56.761 C52.478,52.903 63.566,49.045 74.654,45.187 L74.674,45.534 z" fill="#000000"/>
    <path d="M47.3,20.717 C56.801,20.778 64.795,24.19 70.238,32.224 C72.001,34.63 72.972,37.433 73.823,40.254 C72.399,40.753 70.975,41.252 69.551,41.75 C67.105,42.607 65.233,43.263 63.41,43.902 C55.37,46.718 47.33,49.534 39.291,52.349 L24.315,37.132 C26.737,30.99 31.374,26.304 37.178,23.285 C40.367,21.772 43.754,20.819 47.3,20.717 L47.3,20.717 z M57.722,26.993 L56.923,27.129 C51.24,28.019 50.331,36.359 55.538,39.859 C60.453,43.85 67.778,40.154 66.648,34.25 L66.648,34.25 C65.882,29.905 62.118,26.875 57.722,26.993 L57.722,26.993 z" fill="#000000"/>
    <path d="M14.057,24.931 C18.379,24.776 21.841,27.865 22.003,32.216 L22.003,32.216 C22.058,33.066 21.91,33.671 21.696,34.471 L12.589,25.218 C12.859,25.128 12.648,25.195 13.236,25.067 L14.057,24.931 z" fill="#000000"/>
    <path d="M93.046,22.096 C95.651,22.271 97.478,23.678 97.639,26.384 C97.652,33.819 85.522,30.143 89.698,23.957 C90.489,22.741 91.198,22.464 92.545,22.108 L93.046,22.096 z" fill="#000000"/>
    <path d="M75.63,11.983 C76.195,12.047 76.773,12.045 77.327,12.177 C80.178,12.86 82.509,15.313 82.788,18.248 L82.83,19.087 C83.092,24.443 76.18,28.119 71.886,24.908 L71.854,24.884 L71.82,24.863 C67.276,22.105 68.024,14.41 73.013,12.575 L73.069,12.552 C74.454,12.037 73.615,12.283 75.63,11.983 z" fill="#000000"/>
  </g>
</svg>
